<?xml version="1.0" encoding="UTF-8" standalone="no"?>
<svg
   xmlns:dc="http://purl.org/dc/elements/1.1/"
   xmlns:cc="http://creativecommons.org/ns#"
   xmlns:rdf="http://www.w3.org/1999/02/22-rdf-syntax-ns#"
   xmlns:svg="http://www.w3.org/2000/svg"
   xmlns="http://www.w3.org/2000/svg"
   id="svg8"
   version="1.1"
   viewBox="0 0 210 297"
   height="297mm"
   width="210mm">
  <defs
     id="defs2" />
  <metadata
     id="metadata5">
    <rdf:RDF>
      <cc:Work
         rdf:about="">
        <dc:format>image/svg+xml</dc:format>
        <dc:type
           rdf:resource="http://purl.org/dc/dcmitype/StillImage" />
        <dc:title></dc:title>
      </cc:Work>
    </rdf:RDF>
  </metadata>
  <g
     id="layer1">
    <path
       d="m 94.078873,208.40015 a 11.358955,11.893495 0 0 1 -10.590329,11.86623 11.358955,11.893495 0 0 1 -12.023561,-10.26033 11.358955,11.893495 0 0 1 8.963132,-13.2548 11.358955,11.893495 0 0 1 13.236577,8.4665"
       id="path10"
       style="fill:#0000ff;stroke-width:0.26458332" />
    <path
       transform="scale(0.26458333)"
       id="path31"
       d="m 293.02072,584.25109 c -15.35781,-0.95195 -28.68706,-2.50359 -43.43656,-5.05637 -9.91469,-1.71599 -38.7113,-7.69469 -48.73986,-10.11928 -29.43856,-7.11732 -57.42712,-24.87489 -72.74985,-46.15675 -3.56388,-4.9499 -9.16031,-15.73976 -10.87178,-20.96066 -4.53026,-13.81979 -3.89749,-24.08048 2.2582,-36.61803 8.93421,-18.19666 29.43541,-40.27376 53.3317,-57.43123 14.48224,-10.3982 29.7399,-18.29339 45.20433,-23.39131 11.24375,-3.70655 17.12426,-4.97761 51.51778,-11.13542 18.63818,-0.8624 25.13598,-8.79869 58.9618,-5.57525 10.19853,2.61118 8.42183,3.00831 17.50489,5.42831 6.0026,2.08603 12.66938,3.70184 17.45769,6.97766 1.23193,1.36126 7.45632,3.6568 16.58373,6.11604 9.55317,2.57395 16.64018,4.64261 31.20131,9.10748 6.26986,1.92252 15.8158,4.49021 21.2132,5.70598 5.3974,1.21576 11.29081,2.81046 13.09646,3.54378 4.97118,2.01893 17.5431,9.82131 20.37329,12.64408 5.05716,5.0439 8.7148,11.68954 14.98174,27.22058 4.0886,10.1326 5.00808,14.16228 5.03172,22.05199 0.0648,21.62861 -4.26893,35.97587 -15.53775,51.43906 -16.10155,22.09469 -47.59293,42.42138 -85.31117,55.06565 -15.1822,5.08953 -34.50782,9.98161 -44.07537,11.15723 -4.83871,0.59457 -38.33749,0.58512 -47.9955,-0.0135 z"
       style="fill:#ff0000;stroke-width:0.50507629" />
       <circle
       id="path4975"
       cx="83"
       cy="210"
       r="1"
       style="fill:#ffff00;stroke-width:0.25" />
  </g>
</svg>
